<?xml version="1.0" encoding="UTF-8" standalone="no"?>
<svg
   version="1.0"
   width="24"
   height="24"
   viewBox="0 0 10.20006 10.20006"
   preserveAspectRatio="xMidYMid meet"
   id="svg10"
   sodipodi:docname="UFZ_Logo_RGB_DE_UFZonly.svg"
   inkscape:version="1.1.2 (0a00cf5339, 2022-02-04)"
   xmlns:inkscape="http://www.inkscape.org/namespaces/inkscape"
   xmlns:sodipodi="http://sodipodi.sourceforge.net/DTD/sodipodi-0.dtd"
   xmlns="http://www.w3.org/2000/svg"
   xmlns:svg="http://www.w3.org/2000/svg">
  <defs
     id="defs14" />
  <sodipodi:namedview
     id="namedview12"
     pagecolor="#ffffff"
     bordercolor="#666666"
     borderopacity="1.0"
     inkscape:pageshadow="2"
     inkscape:pageopacity="0.0"
     inkscape:pagecheckerboard="0"
     inkscape:document-units="px"
     showgrid="false"
     inkscape:snap-global="false"
     units="px"
     inkscape:zoom="13.373391"
     inkscape:cx="24.788029"
     inkscape:cy="17.347881"
     inkscape:window-width="1920"
     inkscape:window-height="958"
     inkscape:window-x="0"
     inkscape:window-y="0"
     inkscape:window-maximized="1"
     inkscape:current-layer="svg10"
     viewbox-width="24"
     viewbox-height="24"
     scale-x="1e-05"
     fit-margin-top="0"
     fit-margin-left="0"
     fit-margin-right="0"
     fit-margin-bottom="0" />
  <g
     transform="matrix(0.00178675,0,0,-0.00165575,-0.01786755,10.230711)"
     fill="#000000"
     stroke="none"
     id="g8">
    <path
       d="m 12,3413 3,-968 32,-68 c 27,-57 59,-95 195,-233 141,-144 172,-170 237,-202 l 75,-37 298,-3 c 430,-5 429,-5 668,240 172,178 193,205 221,285 18,54 19,94 19,1005 v 948 h -240 -240 v -905 -904 l -97,-96 -98,-95 H 881 676 l -98,98 -98,98 v 902 902 H 245 10 Z"
       id="path2" />
    <path
       d="M 2283,4277 2180,4174 V 3037 1900 h 240 240 v 500 500 h 490 490 v 240 240 h -490 -490 v 265 265 h 565 565 v 235 235 h -702 -702 z"
       id="path4" />
    <path
       d="m 4090,4140 v -240 h 470 c 259,0 470,-2 470,-5 0,-2 -229,-367 -510,-811 l -510,-806 v -86 -86 l 103,-103 103,-103 h 732 732 v 240 240 l -520,2 -519,3 519,820 519,820 1,74 v 75 l -103,103 -103,103 h -692 -692 z"
       id="path6" />
  </g>
</svg>
