<svg id="fd8dcb39-453d-4784-9e3f-b94580c9fb5e" data-name="FIZ-Logo + FIZ-Produktlogos" xmlns="http://www.w3.org/2000/svg" viewBox="0 0 261 82"><defs><style>.ab563a64-863e-4133-96a7-8ace5666834d{fill:#434245;}.abcd9823-5ac7-4afa-8fcc-e116391c9675{fill:#a62055;}</style></defs><g id="aa2956a3-3dbd-424b-a4f5-ac732fa13836" data-name="fiz karlsruhe"><g id="bfb89f7d-4fa1-49e9-bf87-80db4dae1e14" data-name="deutsch (nur unterzeile)"><path class="ab563a64-863e-4133-96a7-8ace5666834d" d="M34.51,59.84H30.2V51.19h1V59h3.43Z"/><path class="ab563a64-863e-4133-96a7-8ace5666834d" d="M36.07,56.88V57a4.62,4.62,0,0,0,.06.79,1.62,1.62,0,0,0,.23.59A1.54,1.54,0,0,0,37,59a2.18,2.18,0,0,0,.89.18,2.22,2.22,0,0,0,1.55-.59l.38.63a2.79,2.79,0,0,1-1,.58,3.19,3.19,0,0,1-1.16.21,2.52,2.52,0,0,1-2.06-.9,3.69,3.69,0,0,1-.74-2.46,4.77,4.77,0,0,1,.17-1.35,3.06,3.06,0,0,1,.59-1,2.4,2.4,0,0,1,1.9-.87,2.25,2.25,0,0,1,1.71.68,2.81,2.81,0,0,1,.35.44,2.35,2.35,0,0,1,.22.53,5.8,5.8,0,0,1,.12.71,9.25,9.25,0,0,1,0,1v.14Zm2.8-1.61a1.93,1.93,0,0,0-.21-.56,1.1,1.1,0,0,0-.47-.4,1.47,1.47,0,0,0-.67-.15c-.92,0-1.4.65-1.45,2H39A4.62,4.62,0,0,0,38.87,55.27Z"/><path class="ab563a64-863e-4133-96a7-8ace5666834d" d="M42.86,51.61a.74.74,0,0,1-.22.55.77.77,0,0,1-1.08,0,.79.79,0,0,1,0-1.09.68.68,0,0,1,.54-.23.7.7,0,0,1,.54.22A.74.74,0,0,1,42.86,51.61Zm-1.29,8.23V53.58l1-.16v6.42Z"/><path class="ab563a64-863e-4133-96a7-8ace5666834d" d="M49.87,56.62A5,5,0,0,1,49.69,58a3.21,3.21,0,0,1-.5,1.07,2.26,2.26,0,0,1-.79.69,2.09,2.09,0,0,1-1,.25,2.19,2.19,0,0,1-1-.25,2.13,2.13,0,0,1-.75-.61c0,.13,0,.25,0,.35a1.3,1.3,0,0,1-.13.33h-1a2.37,2.37,0,0,0,.14-.57,8,8,0,0,0,0-1V52.09a5.45,5.45,0,0,0-.17-1.29l1-.19a7.1,7.1,0,0,1,.17,1.49v1.47c0,.16,0,.39,0,.7a3.14,3.14,0,0,1,.88-.65,2.09,2.09,0,0,1,.91-.2,2.34,2.34,0,0,1,1,.22,2.12,2.12,0,0,1,.76.64,3.05,3.05,0,0,1,.48,1A5,5,0,0,1,49.87,56.62Zm-1.08-.07a5.74,5.74,0,0,0-.08-1,1.76,1.76,0,0,0-.28-.67,1.25,1.25,0,0,0-.5-.4,1.72,1.72,0,0,0-.68-.14,1.95,1.95,0,0,0-1.57.82v3.24a1.94,1.94,0,0,0,.67.55,2,2,0,0,0,.87.21,1.46,1.46,0,0,0,.64-.15,1.31,1.31,0,0,0,.49-.4,2.45,2.45,0,0,0,.31-.75A4.94,4.94,0,0,0,48.79,56.55Z"/><path class="ab563a64-863e-4133-96a7-8ace5666834d" d="M55,59.84V55.61c0-.16,0-.3,0-.41s0-.2,0-.28a.84.84,0,0,0-.07-.19.91.91,0,0,0-.11-.16.88.88,0,0,0-.7-.26,1.41,1.41,0,0,0-.42.07,3,3,0,0,0-.47.18,3.89,3.89,0,0,0-.46.29,2.64,2.64,0,0,0-.39.34v4.65h-.95V55a3.77,3.77,0,0,0-.24-1.33l1-.26a.5.5,0,0,1,.06.14,2,2,0,0,1,.11.36,1.93,1.93,0,0,1,.06.49,2.84,2.84,0,0,1,2-1,1.76,1.76,0,0,1,.94.25,1.51,1.51,0,0,1,.61.67,1.8,1.8,0,0,1,.15.73v4.77Z"/><path class="ab563a64-863e-4133-96a7-8ace5666834d" d="M59.17,51.61a.74.74,0,0,1-.22.55.77.77,0,0,1-1.08,0,.79.79,0,0,1,0-1.09.68.68,0,0,1,.54-.23.7.7,0,0,1,.54.22A.74.74,0,0,1,59.17,51.61Zm-1.29,8.23V53.58l1-.16v6.42Z"/><path class="ab563a64-863e-4133-96a7-8ace5666834d" d="M64.35,59.84h-4.2v-.76l3.43-4.76H60.42v-.76h4.2v.81l-3.28,4.71h3.48Z"/><path class="ab563a64-863e-4133-96a7-8ace5666834d" d="M65.76,57V56h2.42V57Z"/><path class="ab563a64-863e-4133-96a7-8ace5666834d" d="M69.75,59.84V51.19h1v8.65Z"/><path class="ab563a64-863e-4133-96a7-8ace5666834d" d="M76.46,59.84V55.61c0-.16,0-.3,0-.41a1.88,1.88,0,0,0,0-.28.84.84,0,0,0-.07-.19.91.91,0,0,0-.11-.16.88.88,0,0,0-.69-.26,1.42,1.42,0,0,0-.43.07,3,3,0,0,0-.47.18,3.89,3.89,0,0,0-.46.29,2.64,2.64,0,0,0-.39.34v4.65h-1V55a3.77,3.77,0,0,0-.24-1.33l1-.26a.5.5,0,0,1,.06.14,2,2,0,0,1,.11.36,1.93,1.93,0,0,1,.06.49,2.84,2.84,0,0,1,2-1,1.75,1.75,0,0,1,.93.25,1.51,1.51,0,0,1,.61.67,1.8,1.8,0,0,1,.15.73v4.77Z"/><path class="ab563a64-863e-4133-96a7-8ace5666834d" d="M83.59,58a2.07,2.07,0,0,1-.17.84,2,2,0,0,1-.49.65,2.28,2.28,0,0,1-.75.42,2.69,2.69,0,0,1-1,.16A4.72,4.72,0,0,1,80,59.89a4.47,4.47,0,0,1-1.09-.46l.38-.73a3.79,3.79,0,0,0,2,.6,1.4,1.4,0,0,0,.93-.3,1,1,0,0,0,.35-.8,1,1,0,0,0-.25-.68,1.57,1.57,0,0,0-.79-.36L80.75,57a2.09,2.09,0,0,1-1.19-.62,1.59,1.59,0,0,1-.4-1.11,1.86,1.86,0,0,1,.16-.79,1.82,1.82,0,0,1,.46-.61,2.21,2.21,0,0,1,.71-.39,2.57,2.57,0,0,1,.9-.15,4,4,0,0,1,1,.14,3.52,3.52,0,0,1,.91.35l-.36.73a5.67,5.67,0,0,0-.8-.33,2.3,2.3,0,0,0-.79-.13,1.29,1.29,0,0,0-.87.29,1,1,0,0,0-.32.76.89.89,0,0,0,.2.6,1.21,1.21,0,0,0,.71.32l.83.18C83,56.47,83.59,57.06,83.59,58Z"/><path class="ab563a64-863e-4133-96a7-8ace5666834d" d="M87.39,54.31H86.07v4.06a1.22,1.22,0,0,0,.17.74.84.84,0,0,0,.64.2,1.69,1.69,0,0,0,.35,0,1.48,1.48,0,0,0,.27-.1l.14.64a2.45,2.45,0,0,1-1.11.25,2,2,0,0,1-.45,0,1.26,1.26,0,0,1-.37-.13.93.93,0,0,1-.45-.47,1.91,1.91,0,0,1-.14-.78V54.31H84.3v-.76h.82c0-.15,0-.32,0-.51s0-.36,0-.52,0-.35.06-.57l1-.23c0,.22,0,.42-.07.6s0,.37,0,.59,0,.43,0,.64h1.58Z"/><path class="ab563a64-863e-4133-96a7-8ace5666834d" d="M90.13,51.61a.74.74,0,0,1-.22.55.77.77,0,0,1-1.08,0,.79.79,0,0,1,0-1.09.68.68,0,0,1,.54-.23.7.7,0,0,1,.54.22A.74.74,0,0,1,90.13,51.61Zm-1.29,8.23V53.58l1-.16v6.42Z"/><path class="ab563a64-863e-4133-96a7-8ace5666834d" d="M94.21,54.31H92.9v4.06a1.15,1.15,0,0,0,.17.74.81.81,0,0,0,.64.2,1.52,1.52,0,0,0,.34,0,1.9,1.9,0,0,0,.28-.1l.14.64a2.5,2.5,0,0,1-1.12.25,2,2,0,0,1-.45,0,1.2,1.2,0,0,1-.36-.13.92.92,0,0,1-.46-.47,1.92,1.92,0,0,1-.13-.78V54.31h-.83v-.76H92c0-.15,0-.32,0-.51s0-.36,0-.52,0-.35.06-.57l1-.23c0,.22,0,.42-.06.6s0,.37,0,.59,0,.43,0,.64h1.59Z"/><path class="ab563a64-863e-4133-96a7-8ace5666834d" d="M100.22,60.13a2.58,2.58,0,0,1-.47-.47,1.45,1.45,0,0,1-.21-.54,2.36,2.36,0,0,1-2,1,2,2,0,0,1-1-.24,1.46,1.46,0,0,1-.62-.66,1.6,1.6,0,0,1-.13-.42,4.07,4.07,0,0,1,0-.52V53.6l1-.19V58a2,2,0,0,0,.09.68.72.72,0,0,0,.3.39,1.25,1.25,0,0,0,.35.16,1.52,1.52,0,0,0,.42.06,1.61,1.61,0,0,0,.92-.31,2.16,2.16,0,0,0,.71-.84V53.6l1-.17v4.62a3.22,3.22,0,0,0,.09.89,1.27,1.27,0,0,0,.34.52Z"/><path class="ab563a64-863e-4133-96a7-8ace5666834d" d="M104.79,54.31h-1.32v4.06a1.22,1.22,0,0,0,.17.74.83.83,0,0,0,.64.2,1.69,1.69,0,0,0,.35,0,1.48,1.48,0,0,0,.27-.1l.14.64a2.47,2.47,0,0,1-1.12.25,2,2,0,0,1-.44,0,1.26,1.26,0,0,1-.37-.13.93.93,0,0,1-.45-.47,1.76,1.76,0,0,1-.14-.78V54.31h-.82v-.76h.82c0-.15,0-.32,0-.51s0-.36,0-.52,0-.35.06-.57l1-.23q0,.33-.06.6c0,.18,0,.37,0,.59s0,.43,0,.64h1.58Z"/><path class="ab563a64-863e-4133-96a7-8ace5666834d" d="M111.92,51.76a2.91,2.91,0,0,0-.43-.19,1.32,1.32,0,0,0-.51-.1c-.58,0-.86.37-.86,1.11v1h1.75l-.31.76h-1.44v5.53h-1V54.31h-.6v-.76h.6v-1a2.47,2.47,0,0,1,.07-.6,2,2,0,0,1,.18-.44,1.46,1.46,0,0,1,.22-.3l.21-.19a1.79,1.79,0,0,1,1.11-.33,2.5,2.5,0,0,1,1.39.36Z"/><path class="ab563a64-863e-4133-96a7-8ace5666834d" d="M117,60.13a2.48,2.48,0,0,1-.46-.47,1.31,1.31,0,0,1-.22-.54,2.34,2.34,0,0,1-2,1,2,2,0,0,1-1-.24,1.49,1.49,0,0,1-.63-.66,1.29,1.29,0,0,1-.12-.42,2.82,2.82,0,0,1,0-.52V53.6l1-.19V58a2.33,2.33,0,0,0,.08.68.83.83,0,0,0,.3.39,1.5,1.5,0,0,0,.36.16,2,2,0,0,0,.42,0,1.57,1.57,0,0,0,.92-.31,2.11,2.11,0,0,0,.7-.83V53.6l1-.17v4.62a2.81,2.81,0,0,0,.1.89,1.16,1.16,0,0,0,.33.52ZM114.25,52a.69.69,0,0,1-.19.48.6.6,0,0,1-.46.19.63.63,0,0,1-.47-.19.65.65,0,0,1-.19-.48.6.6,0,0,1,.19-.45.62.62,0,0,1,.46-.19.67.67,0,0,1,.66.64Zm2.62,0a.69.69,0,0,1-.19.48.62.62,0,0,1-.46.19.67.67,0,0,1-.67-.67.6.6,0,0,1,.19-.45.63.63,0,0,1,.47-.19.63.63,0,0,1,.46.19A.61.61,0,0,1,116.87,52Z"/><path class="ab563a64-863e-4133-96a7-8ace5666834d" d="M122.05,54.51a.66.66,0,0,0-.28,0,1.44,1.44,0,0,0-1,.45,1.29,1.29,0,0,0-.3.41,1.78,1.78,0,0,0-.07.59v3.93h-1V55a4.32,4.32,0,0,0-.22-1.34l1-.26s0,.05.06.14a2.64,2.64,0,0,1,.11.38,2.81,2.81,0,0,1,0,.5,2.66,2.66,0,0,1,.81-.76,1.87,1.87,0,0,1,1-.29,1.35,1.35,0,0,1,.34.06Z"/><path class="ab563a64-863e-4133-96a7-8ace5666834d" d="M126.22,59.84V51.19h1v8.65Z"/><path class="ab563a64-863e-4133-96a7-8ace5666834d" d="M132.93,59.84V55.61c0-.16,0-.3,0-.41a1.88,1.88,0,0,0,0-.28.54.54,0,0,0-.07-.19.86.86,0,0,0-.1-.16.91.91,0,0,0-.7-.26,1.32,1.32,0,0,0-.42.07,2.68,2.68,0,0,0-.47.18,4,4,0,0,0-.47.29,2.64,2.64,0,0,0-.39.34v4.65h-.95V55a3.77,3.77,0,0,0-.24-1.33l1-.26a.76.76,0,0,1,.07.14,3.34,3.34,0,0,1,.11.36,2.54,2.54,0,0,1,0,.49,2.86,2.86,0,0,1,2-1,1.76,1.76,0,0,1,.94.25,1.51,1.51,0,0,1,.61.67,1.8,1.8,0,0,1,.15.73v4.77Z"/><path class="ab563a64-863e-4133-96a7-8ace5666834d" d="M138.84,51.76a2.91,2.91,0,0,0-.43-.19,1.32,1.32,0,0,0-.51-.1c-.58,0-.86.37-.86,1.11v1h1.75l-.31.76H137v5.53h-1V54.31h-.6v-.76h.6v-1a2.47,2.47,0,0,1,.07-.6,2,2,0,0,1,.18-.44,1.46,1.46,0,0,1,.22-.3l.21-.19a1.79,1.79,0,0,1,1.11-.33,2.5,2.5,0,0,1,1.39.36Z"/><path class="ab563a64-863e-4133-96a7-8ace5666834d" d="M144.47,56.81a4.48,4.48,0,0,1-.2,1.39,3,3,0,0,1-.57,1,2.34,2.34,0,0,1-.85.61,2.8,2.8,0,0,1-1.1.21,2.4,2.4,0,0,1-2-.9,3.82,3.82,0,0,1-.71-2.45,3.74,3.74,0,0,1,.71-2.43,2.41,2.41,0,0,1,2-.88,2.53,2.53,0,0,1,1.32.32,2.89,2.89,0,0,1,.85.78,3.12,3.12,0,0,1,.43,1A5.32,5.32,0,0,1,144.47,56.81Zm-1.14.09A4.67,4.67,0,0,0,143,55a1.32,1.32,0,0,0-.58-.61,1.63,1.63,0,0,0-.76-.2,1.61,1.61,0,0,0-.78.19,1.17,1.17,0,0,0-.51.5,2.18,2.18,0,0,0-.23.68,5.14,5.14,0,0,0-.08,1,6.59,6.59,0,0,0,.11,1.22,2.93,2.93,0,0,0,.28.84A1.34,1.34,0,0,0,141,59a1.72,1.72,0,0,0,.75.17,1.4,1.4,0,0,0,.85-.25,1.38,1.38,0,0,0,.52-.7,3,3,0,0,0,.15-.59A5.59,5.59,0,0,0,143.33,56.9Z"/><path class="ab563a64-863e-4133-96a7-8ace5666834d" d="M148.8,54.51a.64.64,0,0,0-.28,0,1.47,1.47,0,0,0-1.05.45,1.24,1.24,0,0,0-.29.41,1.73,1.73,0,0,0-.08.59v3.93h-1V55a4.32,4.32,0,0,0-.21-1.34l1-.26s0,.05.07.14a2.84,2.84,0,0,1,.1.38,1.69,1.69,0,0,1,0,.5,2.69,2.69,0,0,1,.82-.76,1.85,1.85,0,0,1,1-.29,1.43,1.43,0,0,1,.34.06Z"/><path class="ab563a64-863e-4133-96a7-8ace5666834d" d="M156.74,59.84V55.2c0-.61-.27-.92-.81-.92a1.39,1.39,0,0,0-.8.26,8.32,8.32,0,0,0-.87.71v4.59h-1V55.38a3.08,3.08,0,0,0,0-.48.89.89,0,0,0-.14-.33.81.81,0,0,0-.65-.25,1.61,1.61,0,0,0-.74.2,4.61,4.61,0,0,0-.87.63v4.69h-.95V55a4,4,0,0,0-.22-1.33l1-.23a.5.5,0,0,1,.06.14,2.1,2.1,0,0,1,.11.35,1.72,1.72,0,0,1,.06.44,2,2,0,0,1,.37-.34,2.47,2.47,0,0,1,.46-.31,2.28,2.28,0,0,1,.51-.21,1.49,1.49,0,0,1,.5-.08,1.59,1.59,0,0,1,.88.27,1.51,1.51,0,0,1,.59.78,3.83,3.83,0,0,1,1-.77,2.22,2.22,0,0,1,1-.28,1.49,1.49,0,0,1,1.15.47,1.72,1.72,0,0,1,.43,1.23v4.74Z"/><path class="ab563a64-863e-4133-96a7-8ace5666834d" d="M163.93,60.11a1.27,1.27,0,0,1-.55-.35,1.4,1.4,0,0,1-.3-.58,3.11,3.11,0,0,1-.87.65,2,2,0,0,1-1,.2,2.53,2.53,0,0,1-1-.16,1.69,1.69,0,0,1-.62-.42,1.35,1.35,0,0,1-.33-.58,2.35,2.35,0,0,1-.09-.64,1.92,1.92,0,0,1,.87-1.67,4.42,4.42,0,0,1,2.47-.59H163v-.44a4.57,4.57,0,0,0,0-.62.67.67,0,0,0-.17-.36.93.93,0,0,0-.36-.26,1.4,1.4,0,0,0-.49-.08,2.74,2.74,0,0,0-.56.06,2.67,2.67,0,0,0-.57.16,4,4,0,0,0-.51.24A2.19,2.19,0,0,0,160,55l-.49-.71a4.69,4.69,0,0,1,2.64-.84,1.67,1.67,0,0,1,1.74,1A2,2,0,0,1,164,55a6.78,6.78,0,0,1,0,.79l0,2.07c0,.26,0,.47,0,.64a1.53,1.53,0,0,0,.07.42.9.9,0,0,0,.16.29,1.06,1.06,0,0,0,.28.2Zm-1.17-3.47h-.25a4.29,4.29,0,0,0-1,.1,1.7,1.7,0,0,0-.68.29,1.07,1.07,0,0,0-.37.47,1.57,1.57,0,0,0-.12.63,1,1,0,0,0,1.1,1.14,1.64,1.64,0,0,0,.91-.27,1.69,1.69,0,0,0,.64-.71l0-1.63Z"/><path class="ab563a64-863e-4133-96a7-8ace5666834d" d="M168.33,54.31H167v4.06a1.22,1.22,0,0,0,.17.74.84.84,0,0,0,.64.2,1.69,1.69,0,0,0,.35,0,1.48,1.48,0,0,0,.27-.1l.14.64a2.45,2.45,0,0,1-1.11.25,2,2,0,0,1-.45,0,1.26,1.26,0,0,1-.37-.13.93.93,0,0,1-.45-.47,1.91,1.91,0,0,1-.14-.78V54.31h-.82v-.76h.82c0-.15,0-.32,0-.51s0-.36,0-.52,0-.35.06-.57l1-.23q0,.33-.06.6c0,.18,0,.37,0,.59s0,.43,0,.64h1.58Z"/><path class="ab563a64-863e-4133-96a7-8ace5666834d" d="M171.07,51.61a.74.74,0,0,1-.22.55.7.7,0,0,1-.54.22.74.74,0,0,1-.55-.22.81.81,0,0,1,0-1.09.71.71,0,0,1,.55-.23.7.7,0,0,1,.54.22A.74.74,0,0,1,171.07,51.61Zm-1.29,8.23V53.58l1-.16v6.42Z"/><path class="ab563a64-863e-4133-96a7-8ace5666834d" d="M177.89,56.81a4.19,4.19,0,0,1-.21,1.39,2.82,2.82,0,0,1-.56,1,2.37,2.37,0,0,1-.86.61,2.75,2.75,0,0,1-1.09.21,2.44,2.44,0,0,1-2-.9,3.88,3.88,0,0,1-.71-2.45,3.74,3.74,0,0,1,.72-2.43,2.4,2.4,0,0,1,2-.88,2.48,2.48,0,0,1,1.32.32,2.78,2.78,0,0,1,.85.78,3.14,3.14,0,0,1,.44,1A5.32,5.32,0,0,1,177.89,56.81Zm-1.14.09a4.67,4.67,0,0,0-.29-1.9,1.32,1.32,0,0,0-.58-.61,1.64,1.64,0,0,0-.77-.2,1.6,1.6,0,0,0-.77.19,1.2,1.2,0,0,0-.52.5,2.85,2.85,0,0,0-.23.68,5.24,5.24,0,0,0-.07,1,5.83,5.83,0,0,0,.11,1.22,2.65,2.65,0,0,0,.28.84,1.34,1.34,0,0,0,.53.46,1.72,1.72,0,0,0,.75.17A1.42,1.42,0,0,0,176,59a1.38,1.38,0,0,0,.52-.7,3,3,0,0,0,.14-.59A5.41,5.41,0,0,0,176.75,56.9Z"/><path class="ab563a64-863e-4133-96a7-8ace5666834d" d="M183,59.84V55.61c0-.16,0-.3,0-.41s0-.2,0-.28a.84.84,0,0,0-.07-.19.91.91,0,0,0-.11-.16.88.88,0,0,0-.7-.26,1.41,1.41,0,0,0-.42.07,3,3,0,0,0-.47.18,3.21,3.21,0,0,0-.46.29,2.64,2.64,0,0,0-.39.34v4.65h-1V55a3.77,3.77,0,0,0-.24-1.33l1-.26a.5.5,0,0,1,.06.14,3.34,3.34,0,0,1,.11.36,1.93,1.93,0,0,1,.06.49,2.84,2.84,0,0,1,2-1,1.76,1.76,0,0,1,.94.25,1.51,1.51,0,0,1,.61.67,1.8,1.8,0,0,1,.15.73v4.77Z"/><path class="ab563a64-863e-4133-96a7-8ace5666834d" d="M189.94,58a1.91,1.91,0,0,1-.17.84,1.81,1.81,0,0,1-.48.65,2.28,2.28,0,0,1-.75.42,2.69,2.69,0,0,1-1,.16,4.66,4.66,0,0,1-1.22-.17,4.31,4.31,0,0,1-1.09-.46l.38-.73a3.78,3.78,0,0,0,2,.6,1.37,1.37,0,0,0,.93-.3,1,1,0,0,0,.35-.8.91.91,0,0,0-.25-.68,1.53,1.53,0,0,0-.79-.36l-.78-.17a2.06,2.06,0,0,1-1.19-.62,1.6,1.6,0,0,1-.41-1.11,2,2,0,0,1,.16-.79,1.85,1.85,0,0,1,.47-.61,2.15,2.15,0,0,1,.7-.39,2.67,2.67,0,0,1,.91-.15,4,4,0,0,1,1,.14,3.59,3.59,0,0,1,.92.35l-.37.73a5.58,5.58,0,0,0-.79-.33,2.36,2.36,0,0,0-.8-.13,1.24,1.24,0,0,0-.86.29,1,1,0,0,0-.33.76.84.84,0,0,0,.21.6,1.21,1.21,0,0,0,.7.32l.83.18C189.38,56.47,189.94,57.06,189.94,58Z"/><path class="ab563a64-863e-4133-96a7-8ace5666834d" d="M192.7,51.61a.74.74,0,0,1-.22.55.72.72,0,0,1-.54.22.74.74,0,0,1-.55-.22.79.79,0,0,1,0-1.09.77.77,0,0,1,1.09,0A.74.74,0,0,1,192.7,51.61Zm-1.29,8.23V53.58l1-.16v6.42Z"/><path class="ab563a64-863e-4133-96a7-8ace5666834d" d="M198.13,59.84V55.61c0-.16,0-.3,0-.41s0-.2,0-.28a.84.84,0,0,0-.08-.19.54.54,0,0,0-.1-.16.91.91,0,0,0-.7-.26,1.32,1.32,0,0,0-.42.07,2.68,2.68,0,0,0-.47.18,3.21,3.21,0,0,0-.46.29,2.3,2.3,0,0,0-.4.34v4.65h-1V55a3.77,3.77,0,0,0-.24-1.33l1-.26a1.19,1.19,0,0,0,.06.14,3.34,3.34,0,0,1,.11.36,2.54,2.54,0,0,1,.05.49,2.86,2.86,0,0,1,2-1,1.76,1.76,0,0,1,.94.25,1.51,1.51,0,0,1,.61.67,1.8,1.8,0,0,1,.15.73v4.77Z"/><path class="ab563a64-863e-4133-96a7-8ace5666834d" d="M204,51.76a2.91,2.91,0,0,0-.43-.19,1.32,1.32,0,0,0-.51-.1c-.58,0-.86.37-.86,1.11v1H204l-.31.76h-1.44v5.53h-1V54.31h-.6v-.76h.6v-1a2.47,2.47,0,0,1,.07-.6,2,2,0,0,1,.18-.44,1.46,1.46,0,0,1,.22-.3l.21-.19a1.79,1.79,0,0,1,1.11-.33,2.5,2.5,0,0,1,1.39.36Z"/><path class="ab563a64-863e-4133-96a7-8ace5666834d" d="M207.44,54.51a.64.64,0,0,0-.28,0,1.47,1.47,0,0,0-1,.45,1.24,1.24,0,0,0-.29.41,1.78,1.78,0,0,0-.07.59v3.93h-1V55a4.32,4.32,0,0,0-.21-1.34l1-.26s0,.05.07.14a2.84,2.84,0,0,1,.1.38,1.69,1.69,0,0,1,0,.5,2.69,2.69,0,0,1,.82-.76,1.85,1.85,0,0,1,1-.29,1.43,1.43,0,0,1,.34.06Z"/><path class="ab563a64-863e-4133-96a7-8ace5666834d" d="M212.62,60.11a1.27,1.27,0,0,1-.55-.35,1.42,1.42,0,0,1-.31-.58,3.08,3.08,0,0,1-.86.65,2,2,0,0,1-1,.2,2.49,2.49,0,0,1-1-.16,1.69,1.69,0,0,1-.62-.42,1.35,1.35,0,0,1-.33-.58,2.37,2.37,0,0,1-.1-.64,1.93,1.93,0,0,1,.88-1.67,4.4,4.4,0,0,1,2.47-.59h.44v-.44a4.57,4.57,0,0,0,0-.62.67.67,0,0,0-.17-.36.93.93,0,0,0-.36-.26,1.46,1.46,0,0,0-.5-.08,2.89,2.89,0,0,0-.56.06,2.75,2.75,0,0,0-.56.16,3.43,3.43,0,0,0-.51.24,2.19,2.19,0,0,0-.39.27l-.49-.71a4.69,4.69,0,0,1,2.64-.84,1.67,1.67,0,0,1,1.74,1,2,2,0,0,1,.13.61c0,.24,0,.5,0,.79l0,2.07c0,.26,0,.47,0,.64a1.53,1.53,0,0,0,.07.42.9.9,0,0,0,.16.29,1.06,1.06,0,0,0,.28.2Zm-1.17-3.47h-.25a4.44,4.44,0,0,0-1,.1,1.66,1.66,0,0,0-.67.29,1,1,0,0,0-.37.47,1.57,1.57,0,0,0-.12.63,1,1,0,0,0,1.1,1.14A1.67,1.67,0,0,0,211,59a1.75,1.75,0,0,0,.64-.71l0-1.63Z"/><path class="ab563a64-863e-4133-96a7-8ace5666834d" d="M218.79,58a2.07,2.07,0,0,1-.17.84,2,2,0,0,1-.49.65,2.28,2.28,0,0,1-.75.42,2.69,2.69,0,0,1-1,.16,4.59,4.59,0,0,1-1.21-.17,4.38,4.38,0,0,1-1.1-.46l.38-.73a3.79,3.79,0,0,0,2,.6,1.4,1.4,0,0,0,.93-.3,1,1,0,0,0,.35-.8,1,1,0,0,0-.25-.68,1.57,1.57,0,0,0-.79-.36L216,57a2.09,2.09,0,0,1-1.19-.62,1.59,1.59,0,0,1-.4-1.11,1.86,1.86,0,0,1,.16-.79,1.82,1.82,0,0,1,.46-.61,2.32,2.32,0,0,1,.71-.39,2.57,2.57,0,0,1,.9-.15,4,4,0,0,1,1,.14,3.52,3.52,0,0,1,.91.35l-.36.73a5.67,5.67,0,0,0-.8-.33,2.3,2.3,0,0,0-.79-.13,1.29,1.29,0,0,0-.87.29,1,1,0,0,0-.32.76.89.89,0,0,0,.2.6,1.24,1.24,0,0,0,.71.32l.83.18C218.23,56.47,218.79,57.06,218.79,58Z"/><path class="ab563a64-863e-4133-96a7-8ace5666834d" d="M222.59,54.31h-1.32v4.06a1.22,1.22,0,0,0,.17.74.83.83,0,0,0,.64.2,1.69,1.69,0,0,0,.35,0,1.48,1.48,0,0,0,.27-.1l.14.64a2.47,2.47,0,0,1-1.12.25,2,2,0,0,1-.44,0,1.26,1.26,0,0,1-.37-.13.93.93,0,0,1-.45-.47,1.76,1.76,0,0,1-.14-.78V54.31h-.82v-.76h.82c0-.15,0-.32,0-.51s0-.36,0-.52,0-.35.06-.57l1-.23q0,.33-.06.6c0,.18,0,.37,0,.59s0,.43,0,.64h1.58Z"/><path class="ab563a64-863e-4133-96a7-8ace5666834d" d="M226.75,54.51a.61.61,0,0,0-.28,0,1.47,1.47,0,0,0-1.05.45,1.24,1.24,0,0,0-.29.41,1.78,1.78,0,0,0-.07.59v3.93h-1V55a4.32,4.32,0,0,0-.21-1.34l1-.26a.77.77,0,0,1,.06.14,2.84,2.84,0,0,1,.1.38,1.69,1.69,0,0,1,0,.5,2.69,2.69,0,0,1,.82-.76,1.87,1.87,0,0,1,1-.29,1.43,1.43,0,0,1,.34.06Z"/><path class="ab563a64-863e-4133-96a7-8ace5666834d" d="M232.52,60.13a2.29,2.29,0,0,1-.47-.47,1.45,1.45,0,0,1-.21-.54,2.36,2.36,0,0,1-2,1,2,2,0,0,1-1-.24,1.46,1.46,0,0,1-.62-.66,1.29,1.29,0,0,1-.13-.42,2.82,2.82,0,0,1,0-.52V53.6l.95-.19V58a2.28,2.28,0,0,0,.08.68.83.83,0,0,0,.3.39,1.46,1.46,0,0,0,.36.16,1.52,1.52,0,0,0,.42.06,1.61,1.61,0,0,0,.92-.31,2.16,2.16,0,0,0,.71-.84V53.6l.95-.17v4.62a3.22,3.22,0,0,0,.09.89,1.27,1.27,0,0,0,.34.52Z"/><path class="ab563a64-863e-4133-96a7-8ace5666834d" d="M234.82,59.84V52.07a5.46,5.46,0,0,0-.17-1.3l1-.19a6.64,6.64,0,0,1,.17,1.5v7.76Zm4,0-2.9-3.56,2.41-2.72h1.24L237,56.28l3.06,3.56Z"/><path class="ab563a64-863e-4133-96a7-8ace5666834d" d="M243.26,54.31H242v4.06a1.15,1.15,0,0,0,.17.74.83.83,0,0,0,.64.2,1.69,1.69,0,0,0,.35,0,1.48,1.48,0,0,0,.27-.1l.14.64a2.47,2.47,0,0,1-1.12.25,1.9,1.9,0,0,1-.44,0,1.26,1.26,0,0,1-.37-.13,1,1,0,0,1-.46-.47,1.92,1.92,0,0,1-.13-.78V54.31h-.83v-.76H241c0-.15,0-.32,0-.51s0-.36,0-.52,0-.35.06-.57l1-.23q0,.33-.06.6c0,.18,0,.37-.05.59s0,.43,0,.64h1.58Z"/><path class="ab563a64-863e-4133-96a7-8ace5666834d" d="M249.18,60.13a2.58,2.58,0,0,1-.47-.47,1.45,1.45,0,0,1-.21-.54,2.34,2.34,0,0,1-2,1,2.06,2.06,0,0,1-1-.24,1.46,1.46,0,0,1-.62-.66,1.6,1.6,0,0,1-.13-.42,4.17,4.17,0,0,1,0-.52V53.6l1-.19V58a2,2,0,0,0,.08.68.72.72,0,0,0,.3.39,1.19,1.19,0,0,0,.36.16,1.42,1.42,0,0,0,.42.06,1.66,1.66,0,0,0,.92-.31,2.14,2.14,0,0,0,.7-.84V53.6l.95-.17v4.62a2.81,2.81,0,0,0,.1.89,1.16,1.16,0,0,0,.33.52Z"/><path class="ab563a64-863e-4133-96a7-8ace5666834d" d="M254.19,54.51a.64.64,0,0,0-.28,0,1.47,1.47,0,0,0-1,.45,1.24,1.24,0,0,0-.29.41,1.78,1.78,0,0,0-.07.59v3.93h-1V55a4.32,4.32,0,0,0-.21-1.34l1-.26s0,.05.07.14a2.84,2.84,0,0,1,.1.38,1.69,1.69,0,0,1,0,.5,2.69,2.69,0,0,1,.82-.76,1.85,1.85,0,0,1,1-.29,1.43,1.43,0,0,1,.34.06Z"/></g><g id="ff1c5f50-869f-4a62-8ead-13dcb91ee8b7" data-name="claim"><path class="abcd9823-5ac7-4afa-8fcc-e116391c9675" d="M35.08,71.69l3.08,9.79H36.05l-.69-2.32H32.49l-.68,2.32H29.75L33,71.69Zm-.2,5.84s-.32-1-.53-2L34,73.84s-.29,1.15-.47,1.88-.31,1.17-.52,1.81Z"/><path class="abcd9823-5ac7-4afa-8fcc-e116391c9675" d="M42.59,71.72c.56,0,1.31,0,1.7,0a3.32,3.32,0,0,1,2.14,1,5.16,5.16,0,0,1,1.33,3.89,5.58,5.58,0,0,1-1,3.39,3.35,3.35,0,0,1-2.37,1.41c-.37,0-.83,0-1.41,0H40.63V71.72Zm0,8.16h1.05c1.3,0,1.89-1,1.89-3.06a5.49,5.49,0,0,0-.49-2.74,1.62,1.62,0,0,0-1.55-.82h-.9Z"/><path class="abcd9823-5ac7-4afa-8fcc-e116391c9675" d="M51.81,71.72l1.61,5.08c.13.44.3,1,.45,1.7.13-.6.38-1.42.56-2l1.66-4.83h2.07l-3.4,9.83H53l-3.31-9.83Z"/><path class="abcd9823-5ac7-4afa-8fcc-e116391c9675" d="M64.42,71.69l3.08,9.79H65.39l-.69-2.32H61.83l-.68,2.32H59.09l3.21-9.79Zm-.2,5.84s-.32-1-.53-2l-.39-1.73S63,75,62.83,75.72s-.31,1.17-.52,1.81Z"/><path class="abcd9823-5ac7-4afa-8fcc-e116391c9675" d="M72.14,71.72,74,75.62a18.5,18.5,0,0,1,1.07,2.77c-.07-.76-.14-2-.15-2.68l-.05-4h1.87v9.76h-2L73,77.75c-.55-1.23-1.14-2.6-1.32-3.21.07.8.08,1.95.1,2.77l0,4.17H70V71.72Z"/><path class="abcd9823-5ac7-4afa-8fcc-e116391c9675" d="M85.84,73.61a2.59,2.59,0,0,0-1.56-.54,2,2,0,0,0-1.66.84,4.47,4.47,0,0,0-.55,2.51A5.54,5.54,0,0,0,82.48,79a2,2,0,0,0,1.88,1.09A2.51,2.51,0,0,0,86,79.5l.9,1.24a4,4,0,0,1-2.72.91A4,4,0,0,1,81,80.3a5.11,5.11,0,0,1-1.18-3.5,6.23,6.23,0,0,1,.66-3,4.2,4.2,0,0,1,3.74-2.26,4,4,0,0,1,2.48.77Z"/><path class="abcd9823-5ac7-4afa-8fcc-e116391c9675" d="M91.67,71.72v9.76h-2V71.72Z"/><path class="abcd9823-5ac7-4afa-8fcc-e116391c9675" d="M97.61,71.72l1.87,3.9a19.66,19.66,0,0,1,1.07,2.77c-.07-.76-.15-2-.16-2.68l0-4h1.87v9.76h-2l-1.68-3.73c-.54-1.23-1.13-2.6-1.32-3.21.07.8.09,1.95.1,2.77l.06,4.17h-1.9V71.72Z"/><path class="abcd9823-5ac7-4afa-8fcc-e116391c9675" d="M111.81,73.91a3.08,3.08,0,0,0-2-.76,2,2,0,0,0-1.4.49c-.66.63-.83,1.69-.83,3.15a3.91,3.91,0,0,0,.73,2.78,2.17,2.17,0,0,0,1.53.55,2.27,2.27,0,0,0,1.11-.24V77.66h-1.49l-.25-1.6H113v4.66a6.32,6.32,0,0,1-3.25.88,3.93,3.93,0,0,1-3.33-1.49,5.23,5.23,0,0,1-1-3.42,4.93,4.93,0,0,1,2-4.44,4,4,0,0,1,2.37-.69,4.63,4.63,0,0,1,3.11,1.13Z"/><path class="abcd9823-5ac7-4afa-8fcc-e116391c9675" d="M126.6,73.81a4.26,4.26,0,0,0-2.28-.74c-.8,0-1.36.46-1.36,1.12s.27.76,1.08,1l1.18.33a2.94,2.94,0,0,1,2.48,2.91c0,2-1.61,3.28-4,3.28a7,7,0,0,1-3.33-.88l.73-1.53a5.64,5.64,0,0,0,2.69.78c1.12,0,1.71-.46,1.71-1.33,0-.63-.41-1-1.28-1.27l-1.08-.29a3,3,0,0,1-1.92-1.24,2.78,2.78,0,0,1-.41-1.49c0-1.78,1.43-3,3.5-3a5.81,5.81,0,0,1,3.26,1Z"/><path class="abcd9823-5ac7-4afa-8fcc-e116391c9675" d="M136.18,73.61a2.59,2.59,0,0,0-1.56-.54,2,2,0,0,0-1.66.84,4.47,4.47,0,0,0-.55,2.51,5.54,5.54,0,0,0,.41,2.62,2,2,0,0,0,1.88,1.09,2.51,2.51,0,0,0,1.68-.63l.9,1.24a4,4,0,0,1-2.72.91,4,4,0,0,1-3.19-1.35,5.11,5.11,0,0,1-1.18-3.5,6.23,6.23,0,0,1,.66-3,4.2,4.2,0,0,1,3.74-2.26,3.93,3.93,0,0,1,2.47.77Z"/><path class="abcd9823-5ac7-4afa-8fcc-e116391c9675" d="M142,71.72v9.76H140V71.72Z"/><path class="abcd9823-5ac7-4afa-8fcc-e116391c9675" d="M151.33,71.72l-.25,1.6h-3.34v2.26h2.79v1.6h-2.77V79.8h3.7v1.68h-5.69V71.72Z"/><path class="abcd9823-5ac7-4afa-8fcc-e116391c9675" d="M157.15,71.72l1.87,3.9a18.3,18.3,0,0,1,1.06,2.77c-.07-.76-.14-2-.15-2.68l0-4h1.87v9.76H159.7L158,77.75c-.55-1.23-1.14-2.6-1.32-3.21.07.8.09,1.95.1,2.77l.06,4.17H155V71.72Z"/><path class="abcd9823-5ac7-4afa-8fcc-e116391c9675" d="M170.84,73.61a2.59,2.59,0,0,0-1.56-.54,2,2,0,0,0-1.66.84,4.48,4.48,0,0,0-.54,2.51,5.57,5.57,0,0,0,.4,2.62,2,2,0,0,0,1.89,1.09A2.5,2.5,0,0,0,171,79.5l.9,1.24a4.46,4.46,0,0,1-5.9-.44,5.07,5.07,0,0,1-1.19-3.5,6.23,6.23,0,0,1,.67-3,4.19,4.19,0,0,1,3.73-2.26,4,4,0,0,1,2.48.77Z"/><path class="abcd9823-5ac7-4afa-8fcc-e116391c9675" d="M180.18,71.72l-.25,1.6h-3.34v2.26h2.79v1.6h-2.77V79.8h3.7v1.68h-5.69V71.72Z"/></g><g id="f8ced2ee-f802-44a6-ae77-ad9989a4d01f" data-name="fiz karlsruhe ohne unterzeile"><path class="ab563a64-863e-4133-96a7-8ace5666834d" d="M40.19,23.84H34v4.47h5v3.21H34v8.69H30V20.66H40.64Z"/><path class="ab563a64-863e-4133-96a7-8ace5666834d" d="M43.09,40.21V20.66H47.2V40.21Z"/><path class="ab563a64-863e-4133-96a7-8ace5666834d" d="M63,40.21H50.77V37.46L58,25.55a21.37,21.37,0,0,1,1.21-1.77,12.91,12.91,0,0,1-2,.14h-6L52,20.66h11.7V23.5L56.48,35.74a11.44,11.44,0,0,1-1,1.38S56.62,37,57.41,37H64Z"/><path class="ab563a64-863e-4133-96a7-8ace5666834d" d="M71.65,40.16V20.94H74V40.16ZM76.77,30l7.71,10.2h-3L74.15,30l7.43-9h3Z"/><path class="ab563a64-863e-4133-96a7-8ace5666834d" d="M95.88,40.75A2.62,2.62,0,0,1,94.66,40,3,3,0,0,1,94,38.69a7.14,7.14,0,0,1-1.91,1.45,4.86,4.86,0,0,1-2.12.44,5.45,5.45,0,0,1-2.15-.37,3.85,3.85,0,0,1-1.39-.93A3.19,3.19,0,0,1,85.68,38a5,5,0,0,1-.21-1.42,4.22,4.22,0,0,1,1.94-3.71,9.67,9.67,0,0,1,5.48-1.32l1,0v-1a9.6,9.6,0,0,0-.07-1.39,1.54,1.54,0,0,0-.38-.79,2.06,2.06,0,0,0-.8-.58,3,3,0,0,0-1.1-.18,6,6,0,0,0-1.24.13,7.32,7.32,0,0,0-1.26.36,7.9,7.9,0,0,0-1.13.54,5.45,5.45,0,0,0-.87.6l-1.09-1.57a10.36,10.36,0,0,1,5.87-1.89q3,0,3.87,2.2A4.52,4.52,0,0,1,96,29.38a16.29,16.29,0,0,1,0,1.74l-.11,4.62q0,.84,0,1.41a3.93,3.93,0,0,0,.15.94,1.91,1.91,0,0,0,.35.63,2,2,0,0,0,.62.45Zm-2.6-7.7h-.57a10,10,0,0,0-2.27.22,4.16,4.16,0,0,0-1.5.64A2.42,2.42,0,0,0,88.11,35a3.64,3.64,0,0,0-.25,1.4c0,1.69.81,2.54,2.44,2.54a3.69,3.69,0,0,0,2-.6,3.9,3.9,0,0,0,1.42-1.57l.08-3.63Z"/><path class="ab563a64-863e-4133-96a7-8ace5666834d" d="M106.8,28.3a1.8,1.8,0,0,0-.62-.11,3.21,3.21,0,0,0-2.34,1,2.77,2.77,0,0,0-.65.91,3.89,3.89,0,0,0-.16,1.3v8.75h-2.26V29.39a9.56,9.56,0,0,0-.47-3l2.24-.59s.06.13.14.33a5.21,5.21,0,0,1,.23.84,4.17,4.17,0,0,1,.09,1.11,6,6,0,0,1,1.81-1.7,4.13,4.13,0,0,1,2.13-.63,2.68,2.68,0,0,1,.76.14Z"/><path class="ab563a64-863e-4133-96a7-8ace5666834d" d="M113.31,40.44a3.56,3.56,0,0,1-.72.05,2.33,2.33,0,0,1-1.68-.59,1.8,1.8,0,0,1-.51-.77,3.73,3.73,0,0,1-.17-1.22V23.05a12.68,12.68,0,0,0-.34-2.87l2.22-.43a15.65,15.65,0,0,1,.37,3.33V37.4a2.79,2.79,0,0,0,.15,1.11.66.66,0,0,0,.64.3l.28-.06.45,1.43A3.07,3.07,0,0,1,113.31,40.44Z"/><path class="ab563a64-863e-4133-96a7-8ace5666834d" d="M126.33,36.05a4.58,4.58,0,0,1-.38,1.86,4.14,4.14,0,0,1-1.08,1.44,5.06,5.06,0,0,1-1.67.95,6.54,6.54,0,0,1-2.14.33,10.15,10.15,0,0,1-2.7-.37,9.62,9.62,0,0,1-2.42-1l.84-1.63A8.4,8.4,0,0,0,121.23,39a3.15,3.15,0,0,0,2.07-.65,2.21,2.21,0,0,0,.77-1.79,2,2,0,0,0-.55-1.51,3.4,3.4,0,0,0-1.75-.81L120,33.83a4.78,4.78,0,0,1-2.64-1.38,3.61,3.61,0,0,1-.9-2.48,4.1,4.1,0,0,1,.36-1.74,3.93,3.93,0,0,1,1-1.36,4.78,4.78,0,0,1,1.57-.88,5.83,5.83,0,0,1,2-.33,8.8,8.8,0,0,1,2.24.3,9.54,9.54,0,0,1,2,.79l-.81,1.62a16.35,16.35,0,0,0-1.76-.74,5.69,5.69,0,0,0-1.76-.28,2.81,2.81,0,0,0-1.93.64,2.18,2.18,0,0,0-.72,1.7,1.93,1.93,0,0,0,.45,1.33,2.81,2.81,0,0,0,1.57.72l1.85.4C125.08,32.66,126.33,34,126.33,36.05Z"/><path class="ab563a64-863e-4133-96a7-8ace5666834d" d="M136.06,28.3a1.75,1.75,0,0,0-.62-.11,3.17,3.17,0,0,0-2.33,1,2.63,2.63,0,0,0-.65.91,3.84,3.84,0,0,0-.17,1.3v8.75H130V29.39a9.29,9.29,0,0,0-.48-3l2.24-.59a1.51,1.51,0,0,1,.14.33,5,5,0,0,1,.24.84,4.62,4.62,0,0,1,.08,1.11,6,6,0,0,1,1.82-1.7,4.09,4.09,0,0,1,2.12-.63,2.62,2.62,0,0,1,.76.14Z"/><path class="ab563a64-863e-4133-96a7-8ace5666834d" d="M149.09,40.8a5.26,5.26,0,0,1-1-1,3.14,3.14,0,0,1-.48-1.21,5.18,5.18,0,0,1-4.42,2.15,4.58,4.58,0,0,1-2.28-.53,3.34,3.34,0,0,1-1.39-1.47,3.29,3.29,0,0,1-.28-.93,8.34,8.34,0,0,1-.08-1.16V26.28l2.11-.42V36a4.94,4.94,0,0,0,.18,1.52,1.81,1.81,0,0,0,.67.86,2.66,2.66,0,0,0,.8.35,3.22,3.22,0,0,0,.93.13,3.55,3.55,0,0,0,2.05-.69,4.9,4.9,0,0,0,1.56-1.86v-10l2.11-.36V36.17a7,7,0,0,0,.21,2,2.51,2.51,0,0,0,.75,1.15Z"/><path class="ab563a64-863e-4133-96a7-8ace5666834d" d="M163.1,40.16V30.52a5.53,5.53,0,0,0-.11-1.27,1.51,1.51,0,0,0-.42-.8,1.7,1.7,0,0,0-.67-.41,2.73,2.73,0,0,0-.94-.15,4.16,4.16,0,0,0-2.08.61,6.94,6.94,0,0,0-2,1.74v9.92h-2.25V22.93a12.32,12.32,0,0,0-.36-2.87l2.24-.42a15.56,15.56,0,0,1,.37,3.32v3.27c0,.44,0,1.08-.08,1.9a10.53,10.53,0,0,1,2.11-1.55,5,5,0,0,1,2.5-.66,4.22,4.22,0,0,1,2.25.61,2.91,2.91,0,0,1,1.3,1.6,4.2,4.2,0,0,1,.18.84c0,.28,0,.68,0,1.18v10Z"/><path class="ab563a64-863e-4133-96a7-8ace5666834d" d="M171.46,33.57v.34a9.88,9.88,0,0,0,.14,1.74,3.84,3.84,0,0,0,.51,1.33,3.58,3.58,0,0,0,1.51,1.31,5.16,5.16,0,0,0,5.44-.92l.84,1.41a6.59,6.59,0,0,1-2.15,1.29,7.45,7.45,0,0,1-2.58.45,5.65,5.65,0,0,1-4.59-2,8.31,8.31,0,0,1-1.65-5.47,9.93,9.93,0,0,1,.39-3,6.83,6.83,0,0,1,1.31-2.3,5.32,5.32,0,0,1,4.21-1.94,5.1,5.1,0,0,1,3.82,1.52,6.23,6.23,0,0,1,.76,1,4.71,4.71,0,0,1,.5,1.18,9.13,9.13,0,0,1,.26,1.58q.09.9.09,2.16v.31ZM177.69,30a3.77,3.77,0,0,0-.46-1.24,2.49,2.49,0,0,0-1-.9,3.23,3.23,0,0,0-1.49-.34c-2,0-3.13,1.46-3.24,4.36h6.42A10,10,0,0,0,177.69,30Z"/></g></g><g id="b9da6428-b2a7-4baf-b25d-4b2a10a754e8" data-name="bildmarke"><g id="a64e24ea-be72-48c4-bbcf-a1d71355805e" data-name="farbig"><path class="ab563a64-863e-4133-96a7-8ace5666834d" d="M13.24,26.74,10.56,33A17.13,17.13,0,0,1,24,1.51L21.27,7.82a10.28,10.28,0,0,0-8,18.92"/><path class="abcd9823-5ac7-4afa-8fcc-e116391c9675" d="M17.26,20.7a3.43,3.43,0,1,0-3.43-3.42,3.42,3.42,0,0,0,3.43,3.42"/></g></g></svg>